<mxfile host="app.diagrams.net" agent="Mozilla/5.0 (X11; Linux x86_64; rv:136.0) Gecko/20100101 Firefox/136.0" version="26.2.4">
  <diagram name="Page-1" id="OZbyIuNmOI4yqD_JnYF7">
    <mxGraphModel dx="1360" dy="880" grid="1" gridSize="10" guides="1" tooltips="1" connect="1" arrows="1" fold="1" page="1" pageScale="1" pageWidth="1169" pageHeight="827" math="0" shadow="0">
      <root>
        <mxCell id="0" />
        <mxCell id="1" parent="0" />
        <mxCell id="xZb4fskYfKKGPLTcp7Rz-6" style="edgeStyle=orthogonalEdgeStyle;rounded=0;orthogonalLoop=1;jettySize=auto;html=1;exitX=0.5;exitY=0.5;exitDx=0;exitDy=0;exitPerimeter=0;entryX=0;entryY=0.5;entryDx=0;entryDy=0;endArrow=none;startFill=0;" parent="1" source="xZb4fskYfKKGPLTcp7Rz-1" target="xZb4fskYfKKGPLTcp7Rz-5" edge="1">
          <mxGeometry relative="1" as="geometry">
            <Array as="points">
              <mxPoint x="340" y="395" />
              <mxPoint x="340" y="215" />
            </Array>
          </mxGeometry>
        </mxCell>
        <mxCell id="xZb4fskYfKKGPLTcp7Rz-15" style="edgeStyle=orthogonalEdgeStyle;rounded=0;orthogonalLoop=1;jettySize=auto;html=1;exitX=0.5;exitY=0.5;exitDx=0;exitDy=0;exitPerimeter=0;endArrow=none;startFill=0;" parent="1" source="xZb4fskYfKKGPLTcp7Rz-1" target="xZb4fskYfKKGPLTcp7Rz-10" edge="1">
          <mxGeometry relative="1" as="geometry">
            <Array as="points">
              <mxPoint x="340" y="395" />
              <mxPoint x="340" y="440" />
            </Array>
          </mxGeometry>
        </mxCell>
        <mxCell id="xZb4fskYfKKGPLTcp7Rz-16" style="edgeStyle=orthogonalEdgeStyle;rounded=0;orthogonalLoop=1;jettySize=auto;html=1;exitX=0.5;exitY=0.5;exitDx=0;exitDy=0;exitPerimeter=0;entryX=0;entryY=0.5;entryDx=0;entryDy=0;endArrow=none;startFill=0;" parent="1" source="xZb4fskYfKKGPLTcp7Rz-1" target="xZb4fskYfKKGPLTcp7Rz-11" edge="1">
          <mxGeometry relative="1" as="geometry">
            <Array as="points">
              <mxPoint x="340" y="395" />
              <mxPoint x="340" y="485" />
            </Array>
          </mxGeometry>
        </mxCell>
        <mxCell id="xZb4fskYfKKGPLTcp7Rz-1" value="CheckQ&lt;br&gt;(meine Schnittstelle)" style="shape=umlActor;verticalLabelPosition=bottom;verticalAlign=top;html=1;" parent="1" vertex="1">
          <mxGeometry x="260" y="365" width="30" height="60" as="geometry" />
        </mxCell>
        <mxCell id="xZb4fskYfKKGPLTcp7Rz-14" style="edgeStyle=orthogonalEdgeStyle;rounded=0;orthogonalLoop=1;jettySize=auto;html=1;exitX=0.5;exitY=0.5;exitDx=0;exitDy=0;exitPerimeter=0;entryX=1;entryY=0.5;entryDx=0;entryDy=0;endArrow=none;startFill=0;" parent="1" source="xZb4fskYfKKGPLTcp7Rz-2" target="xZb4fskYfKKGPLTcp7Rz-8" edge="1">
          <mxGeometry relative="1" as="geometry">
            <Array as="points">
              <mxPoint x="745" y="390" />
              <mxPoint x="700" y="390" />
              <mxPoint x="700" y="305" />
            </Array>
          </mxGeometry>
        </mxCell>
        <mxCell id="xZb4fskYfKKGPLTcp7Rz-2" value="MetricQ" style="shape=umlActor;verticalLabelPosition=bottom;verticalAlign=top;html=1;" parent="1" vertex="1">
          <mxGeometry x="730" y="365" width="30" height="60" as="geometry" />
        </mxCell>
        <mxCell id="xZb4fskYfKKGPLTcp7Rz-3" value="Checkmk" style="shape=umlActor;verticalLabelPosition=bottom;verticalAlign=top;html=1;" parent="1" vertex="1">
          <mxGeometry x="730" y="545" width="30" height="60" as="geometry" />
        </mxCell>
        <mxCell id="xZb4fskYfKKGPLTcp7Rz-4" value="Funktionsweise &lt;br&gt;Schnittstelle" style="shape=umlFrame;whiteSpace=wrap;html=1;pointerEvents=0;width=90;height=30;" parent="1" vertex="1">
          <mxGeometry x="370" y="150" width="300" height="590" as="geometry" />
        </mxCell>
        <mxCell id="xZb4fskYfKKGPLTcp7Rz-17" style="edgeStyle=orthogonalEdgeStyle;rounded=0;orthogonalLoop=1;jettySize=auto;html=1;exitX=0.5;exitY=1;exitDx=0;exitDy=0;entryX=0.5;entryY=0;entryDx=0;entryDy=0;" parent="1" source="xZb4fskYfKKGPLTcp7Rz-5" target="xZb4fskYfKKGPLTcp7Rz-8" edge="1">
          <mxGeometry relative="1" as="geometry" />
        </mxCell>
        <mxCell id="xZb4fskYfKKGPLTcp7Rz-5" value="Checks abonnieren" style="ellipse;whiteSpace=wrap;html=1;" parent="1" vertex="1">
          <mxGeometry x="450" y="180" width="140" height="70" as="geometry" />
        </mxCell>
        <mxCell id="xZb4fskYfKKGPLTcp7Rz-7" style="edgeStyle=orthogonalEdgeStyle;rounded=0;orthogonalLoop=1;jettySize=auto;html=1;exitX=1;exitY=0.5;exitDx=0;exitDy=0;entryX=0.5;entryY=0.5;entryDx=0;entryDy=0;entryPerimeter=0;endArrow=none;startFill=0;" parent="1" source="xZb4fskYfKKGPLTcp7Rz-5" target="xZb4fskYfKKGPLTcp7Rz-2" edge="1">
          <mxGeometry relative="1" as="geometry">
            <Array as="points">
              <mxPoint x="700" y="215" />
              <mxPoint x="700" y="390" />
              <mxPoint x="745" y="390" />
            </Array>
          </mxGeometry>
        </mxCell>
        <mxCell id="xZb4fskYfKKGPLTcp7Rz-18" style="edgeStyle=orthogonalEdgeStyle;rounded=0;orthogonalLoop=1;jettySize=auto;html=1;exitX=0.5;exitY=1;exitDx=0;exitDy=0;entryX=0.5;entryY=0;entryDx=0;entryDy=0;" parent="1" source="xZb4fskYfKKGPLTcp7Rz-8" target="xZb4fskYfKKGPLTcp7Rz-10" edge="1">
          <mxGeometry relative="1" as="geometry" />
        </mxCell>
        <mxCell id="xZb4fskYfKKGPLTcp7Rz-8" value="Metriken senden" style="ellipse;whiteSpace=wrap;html=1;" parent="1" vertex="1">
          <mxGeometry x="450" y="290" width="140" height="70" as="geometry" />
        </mxCell>
        <mxCell id="xZb4fskYfKKGPLTcp7Rz-9" value="&lt;span aria-hidden=&quot;true&quot; style=&quot;border-block: unset; border-inline: unset; border-start-start-radius: unset; border-start-end-radius: unset; border-end-start-radius: unset; border-end-end-radius: unset; overflow-block: unset; overflow-inline: unset; overscroll-behavior-block: unset; overscroll-behavior-inline: unset; margin-block: unset; margin-inline: unset; scroll-margin-block: unset; scroll-margin-inline: unset; padding-block: unset; padding-inline: unset; scroll-padding-block: unset; scroll-padding-inline: unset; inset-block: unset; inset-inline: unset; block-size: unset; min-block-size: unset; max-block-size: unset; inline-size: unset; min-inline-size: unset; max-inline-size: unset; contain-intrinsic-block-size: unset; contain-intrinsic-inline-size: unset; background: unset; background-blend-mode: unset; border: unset; border-radius: unset; box-decoration-break: unset; -moz-float-edge: unset; display: unset; position: fixed; float: unset; clear: unset; vertical-align: unset; baseline-source: unset; overflow: unset; overflow-anchor: unset; transform: unset; rotate: unset; scale: unset; translate: unset; offset: unset; scroll-behavior: unset; scroll-snap-align: unset; scroll-snap-type: unset; scroll-snap-stop: unset; overscroll-behavior: unset; isolation: unset; break-after: unset; break-before: unset; break-inside: unset; resize: unset; perspective: unset; perspective-origin: unset; backface-visibility: unset; transform-box: unset; transform-style: unset; transform-origin: unset; contain: unset; content-visibility: unset; container: unset; appearance: unset; -moz-orient: unset; will-change: unset; shape-image-threshold: unset; shape-margin: unset; shape-outside: unset; touch-action: unset; -webkit-line-clamp: unset; scrollbar-gutter: unset; zoom: unset; columns: unset; column-fill: unset; column-rule: unset; column-span: unset; content: unset; counter-increment: unset; counter-reset: unset; counter-set: unset; opacity: unset; box-shadow: unset; clip: rect(0px, 0px, 0px, 0px); filter: unset; backdrop-filter: unset; mix-blend-mode: unset; font: unset; font-synthesis: unset; font-palette: unset; math-depth: unset; math-style: unset; visibility: unset; writing-mode: unset; text-orientation: unset; print-color-adjust: unset; image-rendering: unset; image-orientation: unset; dominant-baseline: unset; text-anchor: unset; color-interpolation: unset; color-interpolation-filters: unset; fill: unset; fill-opacity: unset; fill-rule: unset; shape-rendering: unset; stroke: unset; stroke-width: unset; stroke-linecap: unset; stroke-linejoin: unset; stroke-miterlimit: unset; stroke-opacity: unset; stroke-dasharray: unset; stroke-dashoffset: unset; clip-rule: unset; marker: unset; paint-order: unset; -moz-context-properties: unset; border-collapse: unset; empty-cells: unset; caption-side: unset; border-spacing: unset; color: unset; text-transform: unset; hyphens: unset; -moz-text-size-adjust: unset; text-indent: unset; overflow-wrap: unset; word-break: unset; text-justify: unset; text-align-last: unset; text-align: unset; letter-spacing: unset; word-spacing: unset; white-space: pre; text-shadow: unset; text-emphasis: unset; text-emphasis-position: unset; tab-size: unset; line-break: unset; -webkit-text-fill-color: unset; -webkit-text-stroke: unset; ruby-align: unset; ruby-position: unset; text-combine-upright: unset; text-rendering: unset; text-underline-offset: unset; text-underline-position: unset; text-decoration-skip-ink: unset; hyphenate-character: unset; forced-color-adjust: unset; -webkit-text-security: unset; text-wrap-style: unset; cursor: unset; pointer-events: unset; caret-color: unset; accent-color: unset; color-scheme: unset; scrollbar-color: unset; list-style: unset; quotes: unset; margin: unset; overflow-clip-margin: unset; scroll-margin: unset; outline: unset; outline-offset: unset; padding: unset; scroll-padding: unset; page: unset; top: 0px; right: unset; bottom: unset; left: unset; z-index: unset; flex-flow: unset; place-content: unset; place-items: unset; flex: unset; place-self: unset; order: unset; height: unset; min-height: unset; max-height: unset; width: unset; min-width: unset; max-width: unset; box-sizing: unset; object-fit: unset; object-position: unset; grid-area: unset; grid: unset; masonry-auto-flow: unset; gap: unset; aspect-ratio: unset; contain-intrinsic-size: unset; vector-effect: unset; stop-color: unset; stop-opacity: unset; flood-color: unset; flood-opacity: unset; lighting-color: unset; mask-type: unset; clip-path: unset; mask: unset; x: unset; y: unset; cx: unset; cy: unset; rx: unset; ry: unset; r: unset; d: unset; table-layout: unset; text-overflow: unset; text-decoration: unset; ime-mode: unset; scrollbar-width: unset; user-select: text; -moz-window-dragging: unset; -moz-force-broken-image-icon: unset; transition: unset; animation: unset; animation-composition: unset; -moz-box-align: unset; -moz-box-direction: unset; -moz-box-flex: unset; -moz-box-orient: unset; -moz-box-pack: unset; -moz-box-ordinal-group: unset;&quot;&gt;%%{init: {&#39;theme&#39;: &#39;base&#39;, &#39;themeVariables&#39;: { &#39;primaryColor&#39;: &#39;#ffcc00&#39;, &#39;edgeLabelBackground&#39;:&#39;#ffffff&#39;, &#39;tertiaryColor&#39;: &#39;#f4f4f4&#39;}}}%%&#xa;usecaseDiagram&#xa;    actor &quot;Schnittstelle&quot; as Schnittstelle&#xa;    actor &quot;MetricQ&quot; as MetricQ&#xa;    actor &quot;Checkmk Agent&quot; as CheckmkAgent&#xa;&#xa;    Schnittstelle --&amp;gt; (Checks abonnieren)&#xa;    (Checks abonnieren) --&amp;gt; MetricQ&#xa;    MetricQ --&amp;gt; (Metriken senden)&#xa;    (Metriken senden) --&amp;gt; Schnittstelle&#xa;    Schnittstelle --&amp;gt; (Daten verarbeiten)&#xa;    (Daten verarbeiten) --&amp;gt; (Piggyback File erstellen)&#xa;    (Piggyback File erstellen) --&amp;gt; CheckmkAgent&#xa;    CheckmkAgent --&amp;gt; (Piggyback File auslesen)&#xa;&lt;/span&gt;" style="text;whiteSpace=wrap;html=1;" parent="1" vertex="1">
          <mxGeometry x="510" y="430" width="30" height="20" as="geometry" />
        </mxCell>
        <mxCell id="xZb4fskYfKKGPLTcp7Rz-19" style="edgeStyle=orthogonalEdgeStyle;rounded=0;orthogonalLoop=1;jettySize=auto;html=1;exitX=0.5;exitY=1;exitDx=0;exitDy=0;entryX=0.5;entryY=0;entryDx=0;entryDy=0;" parent="1" source="xZb4fskYfKKGPLTcp7Rz-10" target="xZb4fskYfKKGPLTcp7Rz-11" edge="1">
          <mxGeometry relative="1" as="geometry" />
        </mxCell>
        <mxCell id="xZb4fskYfKKGPLTcp7Rz-10" value="Daten verarbeiten" style="ellipse;whiteSpace=wrap;html=1;" parent="1" vertex="1">
          <mxGeometry x="450" y="405" width="140" height="70" as="geometry" />
        </mxCell>
        <mxCell id="xZb4fskYfKKGPLTcp7Rz-11" value="Piggyback-File erstellen" style="ellipse;whiteSpace=wrap;html=1;" parent="1" vertex="1">
          <mxGeometry x="450" y="520" width="140" height="70" as="geometry" />
        </mxCell>
        <mxCell id="xZb4fskYfKKGPLTcp7Rz-12" value="Piggyback-File auslesen" style="ellipse;whiteSpace=wrap;html=1;" parent="1" vertex="1">
          <mxGeometry x="450" y="650" width="140" height="70" as="geometry" />
        </mxCell>
        <mxCell id="xZb4fskYfKKGPLTcp7Rz-13" style="edgeStyle=orthogonalEdgeStyle;rounded=0;orthogonalLoop=1;jettySize=auto;html=1;exitX=1;exitY=0.5;exitDx=0;exitDy=0;entryX=0.5;entryY=0.5;entryDx=0;entryDy=0;entryPerimeter=0;endArrow=none;startFill=0;" parent="1" source="xZb4fskYfKKGPLTcp7Rz-12" target="xZb4fskYfKKGPLTcp7Rz-3" edge="1">
          <mxGeometry relative="1" as="geometry">
            <Array as="points">
              <mxPoint x="700" y="685" />
              <mxPoint x="700" y="575" />
            </Array>
          </mxGeometry>
        </mxCell>
        <mxCell id="xZb4fskYfKKGPLTcp7Rz-20" style="edgeStyle=orthogonalEdgeStyle;rounded=0;orthogonalLoop=1;jettySize=auto;html=1;exitX=0.5;exitY=1;exitDx=0;exitDy=0;entryX=0.5;entryY=0;entryDx=0;entryDy=0;" parent="1" source="xZb4fskYfKKGPLTcp7Rz-11" target="xZb4fskYfKKGPLTcp7Rz-12" edge="1">
          <mxGeometry relative="1" as="geometry" />
        </mxCell>
      </root>
    </mxGraphModel>
  </diagram>
</mxfile>
